<mxfile host="app.diagrams.net" modified="2023-05-04T03:37:38.352Z" agent="5.0 (Windows NT 10.0; WOW64) AppleWebKit/537.36 (KHTML, like Gecko) Chrome/78.0.3904.108 Safari/537.36" etag="0_ZnAHV6_7dDbkR9KTF9" version="20.8.23" type="github" pages="2">
  <diagram name="第 1 页" id="Sjwlilv4oeNG9_26mYKJ">
    <mxGraphModel dx="1197" dy="616" grid="0" gridSize="10" guides="1" tooltips="1" connect="1" arrows="1" fold="1" page="1" pageScale="1" pageWidth="827" pageHeight="1169" math="0" shadow="0">
      <root>
        <mxCell id="0" />
        <mxCell id="1" parent="0" />
        <mxCell id="TLC2W-ysQb9lLj4SY6h4-1" value="服务提供者&lt;br style=&quot;border-color: var(--border-color); font-size: 14px;&quot;&gt;实例2" style="rounded=1;whiteSpace=wrap;html=1;fillColor=#0080ff;fontSize=14;" vertex="1" parent="1">
          <mxGeometry x="540" y="250" width="120" height="60" as="geometry" />
        </mxCell>
        <mxCell id="TLC2W-ysQb9lLj4SY6h4-2" value="&lt;font style=&quot;font-size: 14px;&quot;&gt;服务提供者&lt;br&gt;实例1&lt;/font&gt;" style="rounded=1;whiteSpace=wrap;html=1;fillColor=#0080ff;" vertex="1" parent="1">
          <mxGeometry x="540" y="120" width="120" height="60" as="geometry" />
        </mxCell>
        <mxCell id="TLC2W-ysQb9lLj4SY6h4-3" value="服务提供者&lt;br style=&quot;border-color: var(--border-color); font-size: 14px;&quot;&gt;实例3" style="rounded=1;whiteSpace=wrap;html=1;fillColor=#0080ff;fontSize=14;" vertex="1" parent="1">
          <mxGeometry x="540" y="380" width="120" height="60" as="geometry" />
        </mxCell>
        <mxCell id="TLC2W-ysQb9lLj4SY6h4-4" value="nacos" style="rounded=1;whiteSpace=wrap;html=1;fillColor=#8080ff;fontSize=14;" vertex="1" parent="1">
          <mxGeometry x="280" y="120" width="120" height="60" as="geometry" />
        </mxCell>
        <mxCell id="TLC2W-ysQb9lLj4SY6h4-5" value="" style="whiteSpace=wrap;html=1;aspect=fixed;fillColor=#fff2cc;rounded=1;strokeColor=#d6b656;" vertex="1" parent="1">
          <mxGeometry x="160" y="250" width="110" height="110" as="geometry" />
        </mxCell>
        <mxCell id="TLC2W-ysQb9lLj4SY6h4-6" value="ribbon" style="rounded=1;whiteSpace=wrap;html=1;" vertex="1" parent="1">
          <mxGeometry x="165" y="300" width="100" height="50" as="geometry" />
        </mxCell>
        <mxCell id="TLC2W-ysQb9lLj4SY6h4-7" value="服务消费者" style="text;strokeColor=none;fillColor=none;html=1;fontSize=14;fontStyle=0;verticalAlign=middle;align=center;" vertex="1" parent="1">
          <mxGeometry x="165" y="260" width="100" height="40" as="geometry" />
        </mxCell>
        <mxCell id="TLC2W-ysQb9lLj4SY6h4-8" value="注册" style="endArrow=classic;html=1;rounded=0;fontSize=14;entryX=0.5;entryY=1;entryDx=0;entryDy=0;dashed=1;exitX=0.25;exitY=0;exitDx=0;exitDy=0;" edge="1" parent="1" source="TLC2W-ysQb9lLj4SY6h4-5" target="TLC2W-ysQb9lLj4SY6h4-4">
          <mxGeometry width="50" height="50" relative="1" as="geometry">
            <mxPoint x="260" y="250" as="sourcePoint" />
            <mxPoint x="310" y="200" as="targetPoint" />
          </mxGeometry>
        </mxCell>
        <mxCell id="TLC2W-ysQb9lLj4SY6h4-9" value="注册" style="endArrow=classic;html=1;rounded=0;fontSize=14;entryX=1;entryY=0.5;entryDx=0;entryDy=0;dashed=1;exitX=0;exitY=0.75;exitDx=0;exitDy=0;" edge="1" parent="1" source="TLC2W-ysQb9lLj4SY6h4-2" target="TLC2W-ysQb9lLj4SY6h4-4">
          <mxGeometry width="50" height="50" relative="1" as="geometry">
            <mxPoint x="270" y="260" as="sourcePoint" />
            <mxPoint x="350" y="190" as="targetPoint" />
          </mxGeometry>
        </mxCell>
        <mxCell id="TLC2W-ysQb9lLj4SY6h4-10" value="注册" style="endArrow=classic;html=1;rounded=0;fontSize=14;entryX=1.004;entryY=0.664;entryDx=0;entryDy=0;dashed=1;exitX=0;exitY=0.5;exitDx=0;exitDy=0;entryPerimeter=0;" edge="1" parent="1" source="TLC2W-ysQb9lLj4SY6h4-1" target="TLC2W-ysQb9lLj4SY6h4-4">
          <mxGeometry width="50" height="50" relative="1" as="geometry">
            <mxPoint x="550" y="175" as="sourcePoint" />
            <mxPoint x="410" y="160" as="targetPoint" />
          </mxGeometry>
        </mxCell>
        <mxCell id="TLC2W-ysQb9lLj4SY6h4-11" value="注册" style="endArrow=classic;html=1;rounded=0;fontSize=14;entryX=1.004;entryY=0.914;entryDx=0;entryDy=0;dashed=1;exitX=0;exitY=0.25;exitDx=0;exitDy=0;entryPerimeter=0;" edge="1" parent="1" source="TLC2W-ysQb9lLj4SY6h4-3" target="TLC2W-ysQb9lLj4SY6h4-4">
          <mxGeometry width="50" height="50" relative="1" as="geometry">
            <mxPoint x="560" y="185" as="sourcePoint" />
            <mxPoint x="420" y="170" as="targetPoint" />
          </mxGeometry>
        </mxCell>
        <mxCell id="TLC2W-ysQb9lLj4SY6h4-12" value="获取可用服务列表" style="endArrow=classic;html=1;rounded=0;fontSize=14;exitX=0.583;exitY=1;exitDx=0;exitDy=0;exitPerimeter=0;entryX=1;entryY=0.25;entryDx=0;entryDy=0;" edge="1" parent="1" source="TLC2W-ysQb9lLj4SY6h4-4" target="TLC2W-ysQb9lLj4SY6h4-6">
          <mxGeometry width="50" height="50" relative="1" as="geometry">
            <mxPoint x="300" y="330" as="sourcePoint" />
            <mxPoint x="273" y="315" as="targetPoint" />
          </mxGeometry>
        </mxCell>
        <mxCell id="TLC2W-ysQb9lLj4SY6h4-13" value="负载均衡请求" style="endArrow=classic;html=1;rounded=0;fontSize=14;exitX=1;exitY=0.75;exitDx=0;exitDy=0;entryX=0;entryY=0.5;entryDx=0;entryDy=0;" edge="1" parent="1" source="TLC2W-ysQb9lLj4SY6h4-6" target="TLC2W-ysQb9lLj4SY6h4-3">
          <mxGeometry width="50" height="50" relative="1" as="geometry">
            <mxPoint x="360" y="190" as="sourcePoint" />
            <mxPoint x="283" y="325" as="targetPoint" />
          </mxGeometry>
        </mxCell>
      </root>
    </mxGraphModel>
  </diagram>
  <diagram id="WMfaG_QDx9nttorIAWwL" name="第 2 页">
    <mxGraphModel dx="1436" dy="739" grid="0" gridSize="10" guides="1" tooltips="1" connect="1" arrows="1" fold="1" page="1" pageScale="1" pageWidth="827" pageHeight="1169" math="0" shadow="0">
      <root>
        <mxCell id="0" />
        <mxCell id="1" parent="0" />
      </root>
    </mxGraphModel>
  </diagram>
</mxfile>
